<svg id="svg" version="1.1" xmlns="http://www.w3.org/2000/svg" xmlns:xlink="http://www.w3.org/1999/xlink" width="400" height="113.33333333333334" viewBox="0, 0, 400,113.33333333333334"><g id="svgg"><path id="path0" d="M260.600 59.878 C 258.357 60.525,255.510 63.045,255.244 64.619 C 255.186 64.966,255.104 65.374,255.063 65.525 C 254.990 65.795,255.701 66.500,256.046 66.500 C 256.138 66.500,256.529 66.658,256.915 66.850 C 258.042 67.413,259.085 67.048,259.721 65.866 C 259.981 65.384,260.393 64.865,260.638 64.711 C 260.883 64.558,261.365 64.185,261.709 63.883 C 264.338 61.574,268.345 66.749,265.993 69.417 C 265.832 69.600,265.505 70.158,265.266 70.656 C 265.028 71.155,264.571 71.779,264.250 72.044 C 263.929 72.308,263.667 72.639,263.667 72.780 C 263.667 73.090,263.082 73.723,259.352 77.451 C 257.759 79.045,256.240 80.459,255.977 80.595 C 255.715 80.731,255.500 80.935,255.500 81.050 C 255.500 81.164,255.276 81.529,255.003 81.861 C 254.125 82.926,254.014 82.910,263.067 82.966 C 268.825 83.001,271.283 82.959,271.792 82.819 L 272.500 82.623 272.500 81.420 C 272.500 78.942,272.327 78.821,268.551 78.678 C 265.080 78.547,264.022 77.866,265.625 76.793 C 266.672 76.092,269.508 73.133,269.933 72.298 C 270.153 71.866,270.480 71.433,270.661 71.336 C 271.781 70.737,272.103 65.132,271.113 63.478 C 269.836 61.347,268.889 60.532,267.159 60.077 C 263.754 59.182,263.084 59.162,260.600 59.878 M267.419 60.754 C 267.607 60.791,267.840 61.045,267.948 61.330 C 268.075 61.666,268.342 61.923,268.734 62.087 C 269.146 62.259,269.361 62.475,269.436 62.793 C 269.564 63.331,269.964 63.833,270.264 63.833 C 270.887 63.833,271.000 64.294,271.000 66.839 C 271.000 69.343,270.824 70.000,270.154 70.000 C 269.975 70.000,269.393 71.337,269.265 72.042 C 269.173 72.546,269.079 72.667,268.774 72.667 C 268.235 72.667,267.876 72.998,267.713 73.647 C 267.603 74.088,267.449 74.250,267.000 74.397 C 266.470 74.570,266.157 74.954,265.931 75.708 C 265.883 75.869,265.687 76.000,265.494 76.000 C 264.568 76.000,263.772 77.233,263.865 78.525 C 263.949 79.697,264.547 79.903,268.050 79.969 L 270.850 80.022 271.008 80.439 C 271.272 81.132,271.207 82.449,270.903 82.566 C 270.437 82.744,255.862 82.681,255.750 82.500 C 255.693 82.409,255.906 82.181,256.223 81.994 C 256.539 81.807,256.886 81.442,256.994 81.181 C 257.122 80.873,257.415 80.620,257.836 80.454 C 258.304 80.270,258.564 80.026,258.783 79.561 C 258.955 79.195,259.226 78.895,259.417 78.861 C 259.873 78.778,260.500 78.172,260.500 77.814 C 260.500 77.481,260.698 77.323,261.417 77.083 C 261.778 76.963,261.968 76.755,262.102 76.333 C 262.232 75.922,262.474 75.651,262.921 75.412 C 263.339 75.190,263.618 74.893,263.737 74.543 C 263.836 74.250,264.273 73.627,264.709 73.158 C 265.238 72.589,265.564 72.058,265.689 71.563 C 265.841 70.958,265.979 70.777,266.427 70.590 C 267.153 70.287,267.331 69.622,267.332 67.219 C 267.334 64.996,267.238 64.701,266.160 63.612 L 265.330 62.773 263.925 62.700 C 261.246 62.559,259.722 63.313,259.232 65.020 C 258.987 65.876,257.616 66.272,256.208 65.895 C 255.454 65.693,255.781 64.453,256.697 64.048 C 257.036 63.899,257.177 63.680,257.283 63.144 C 257.407 62.519,257.491 62.419,258.003 62.286 C 258.754 62.092,258.956 61.915,259.083 61.334 C 259.181 60.887,259.251 60.852,260.219 60.762 C 260.786 60.709,261.512 60.639,261.833 60.607 C 262.509 60.539,266.921 60.655,267.419 60.754 " stroke="none" fill="#e4ecec" fill-rule="evenodd"></path><path id="path1" d="M261.833 60.607 C 261.512 60.639,260.786 60.709,260.219 60.762 C 259.251 60.852,259.181 60.887,259.083 61.334 C 258.956 61.915,258.754 62.092,258.003 62.286 C 257.491 62.419,257.407 62.519,257.283 63.144 C 257.177 63.680,257.036 63.899,256.697 64.048 C 255.781 64.453,255.454 65.693,256.208 65.895 C 257.616 66.272,258.987 65.876,259.232 65.020 C 259.722 63.313,261.246 62.559,263.925 62.700 L 265.330 62.773 266.160 63.612 C 267.238 64.701,267.334 64.996,267.332 67.219 C 267.331 69.622,267.153 70.287,266.427 70.590 C 265.979 70.777,265.841 70.958,265.689 71.563 C 265.564 72.058,265.238 72.589,264.709 73.158 C 264.273 73.627,263.836 74.250,263.737 74.543 C 263.618 74.893,263.339 75.190,262.921 75.412 C 262.474 75.651,262.232 75.922,262.102 76.333 C 261.968 76.755,261.778 76.963,261.417 77.083 C 260.698 77.323,260.500 77.481,260.500 77.814 C 260.500 78.172,259.873 78.778,259.417 78.861 C 259.226 78.895,258.955 79.195,258.783 79.561 C 258.564 80.026,258.304 80.270,257.836 80.454 C 257.415 80.620,257.122 80.873,256.994 81.181 C 256.886 81.442,256.539 81.807,256.223 81.994 C 255.906 82.181,255.693 82.409,255.750 82.500 C 255.862 82.681,270.437 82.744,270.903 82.566 C 271.207 82.449,271.272 81.132,271.008 80.439 L 270.850 80.022 268.050 79.969 C 264.547 79.903,263.949 79.697,263.865 78.525 C 263.772 77.233,264.568 76.000,265.494 76.000 C 265.687 76.000,265.883 75.869,265.931 75.708 C 266.157 74.954,266.470 74.570,267.000 74.397 C 267.449 74.250,267.603 74.088,267.713 73.647 C 267.876 72.998,268.235 72.667,268.774 72.667 C 269.079 72.667,269.173 72.546,269.265 72.042 C 269.393 71.337,269.975 70.000,270.154 70.000 C 270.824 70.000,271.000 69.343,271.000 66.839 C 271.000 64.294,270.887 63.833,270.264 63.833 C 269.964 63.833,269.564 63.331,269.436 62.793 C 269.361 62.475,269.146 62.259,268.734 62.087 C 268.342 61.923,268.075 61.666,267.948 61.330 C 267.840 61.045,267.607 60.791,267.419 60.754 C 266.921 60.655,262.509 60.539,261.833 60.607 " stroke="none" fill="#fcfcfc" fill-rule="evenodd"></path><path id="path2" d="M50.833 41.721 C 50.833 41.882,51.514 42.541,51.597 42.459 C 51.634 42.421,51.478 42.214,51.249 41.999 C 51.021 41.784,50.833 41.659,50.833 41.721 M261.475 58.500 C 261.140 58.585,260.603 58.833,260.281 59.052 C 259.959 59.270,259.333 59.550,258.890 59.674 C 258.110 59.892,257.411 60.492,255.667 62.442 C 253.922 64.392,253.832 66.321,255.453 67.015 C 255.873 67.196,256.471 67.566,256.782 67.839 C 257.280 68.276,257.431 68.323,258.048 68.231 C 259.257 68.051,259.545 67.828,260.141 66.610 C 260.569 65.736,260.823 65.418,261.228 65.248 C 261.519 65.127,261.898 64.871,262.071 64.680 C 262.681 64.006,263.847 64.190,264.699 65.097 C 265.961 66.439,266.057 67.061,265.259 68.742 C 264.944 69.407,264.634 70.155,264.572 70.403 C 264.510 70.651,264.236 71.018,263.963 71.219 C 263.691 71.419,263.351 71.808,263.208 72.083 C 262.735 72.994,259.619 76.287,256.667 78.997 C 254.280 81.187,253.310 82.333,253.522 82.711 C 254.006 83.577,254.081 83.583,263.529 83.583 C 274.204 83.583,273.226 83.842,273.297 80.999 C 273.365 78.294,272.933 78.000,268.886 78.000 C 266.730 78.000,265.639 77.645,266.431 77.202 C 267.067 76.846,270.070 73.688,270.347 73.083 C 270.515 72.717,270.879 72.206,271.156 71.948 C 271.512 71.616,271.756 71.130,271.994 70.281 C 272.178 69.622,272.443 68.736,272.581 68.311 C 272.912 67.297,272.899 66.775,272.511 65.486 C 272.333 64.898,272.064 63.969,271.912 63.422 C 271.728 62.757,271.462 62.260,271.109 61.922 C 270.819 61.644,270.332 61.098,270.027 60.709 C 269.556 60.107,269.294 59.948,268.278 59.644 C 267.621 59.447,266.761 59.100,266.367 58.873 C 265.567 58.411,262.686 58.191,261.475 58.500 M265.000 59.564 C 268.812 60.375,269.529 60.834,271.113 63.478 C 272.103 65.132,271.781 70.737,270.661 71.336 C 270.480 71.433,270.153 71.866,269.933 72.298 C 269.508 73.133,266.672 76.092,265.625 76.793 C 264.022 77.866,265.080 78.547,268.551 78.678 C 272.327 78.821,272.500 78.942,272.500 81.420 L 272.500 82.623 271.792 82.819 C 271.283 82.959,268.825 83.001,263.067 82.966 C 254.014 82.910,254.125 82.926,255.003 81.861 C 255.276 81.529,255.500 81.164,255.500 81.050 C 255.500 80.935,255.715 80.731,255.977 80.595 C 256.240 80.459,257.759 79.045,259.352 77.451 C 263.082 73.723,263.667 73.090,263.667 72.780 C 263.667 72.639,263.929 72.308,264.250 72.044 C 264.571 71.779,265.028 71.155,265.266 70.656 C 265.505 70.158,265.832 69.600,265.993 69.417 C 268.345 66.749,264.338 61.574,261.709 63.883 C 261.365 64.185,260.883 64.558,260.638 64.711 C 260.393 64.865,259.981 65.384,259.721 65.866 C 259.085 67.048,258.042 67.413,256.915 66.850 C 256.529 66.658,256.138 66.500,256.046 66.500 C 255.701 66.500,254.990 65.795,255.063 65.525 C 255.104 65.374,255.186 64.966,255.244 64.619 C 255.357 63.952,255.776 63.417,257.683 61.505 C 259.381 59.803,262.382 59.007,265.000 59.564 M68.676 61.260 C 68.896 61.495,69.104 61.605,69.137 61.504 C 69.252 61.161,69.010 60.833,68.643 60.833 L 68.275 60.833 68.676 61.260 M284.444 64.528 C 284.276 64.711,284.170 64.892,284.208 64.930 C 284.246 64.968,284.452 64.811,284.667 64.583 C 284.882 64.354,284.989 64.173,284.904 64.181 C 284.819 64.188,284.612 64.344,284.444 64.528 " stroke="none" fill="#7c948c" fill-rule="evenodd"></path><path id="path3" d="M95.853 0.375 C 95.833 0.842,95.745 0.889,94.987 0.841 C 94.473 0.809,94.129 1.171,94.172 1.700 C 94.261 2.777,94.112 52.011,94.021 51.588 C 93.931 51.166,93.811 51.073,93.208 50.954 C 92.592 50.832,92.498 50.755,92.482 50.365 C 92.434 49.148,92.519 49.232,91.301 49.184 C 90.886 49.168,90.848 49.106,90.801 48.375 L 90.750 47.583 89.958 47.533 C 89.194 47.484,89.166 47.463,89.147 46.949 C 89.110 45.914,89.117 45.924,88.339 45.869 C 87.433 45.805,87.488 45.860,87.449 44.977 C 87.414 44.197,87.475 44.234,86.155 44.183 C 85.840 44.171,85.664 44.024,85.488 43.625 C 85.147 42.849,84.507 42.609,82.583 42.532 C 80.827 42.462,80.670 42.392,80.795 41.738 C 80.897 41.205,80.550 40.807,80.013 40.841 C 79.777 40.856,78.750 40.861,77.732 40.851 L 75.881 40.833 75.732 40.137 C 75.526 39.173,75.566 39.178,68.427 39.182 C 61.091 39.186,61.141 39.180,60.954 40.125 L 60.816 40.821 59.200 40.869 C 57.699 40.913,57.580 40.942,57.533 41.269 C 57.425 42.023,56.637 42.517,55.533 42.522 C 54.433 42.527,54.119 42.722,54.172 43.366 C 54.231 44.090,54.176 44.148,53.375 44.199 L 52.583 44.250 52.389 43.028 C 52.167 41.640,51.933 41.299,51.008 41.022 C 49.956 40.707,27.928 40.768,27.664 41.087 C 27.494 41.292,27.433 41.291,27.221 41.078 C 26.944 40.801,2.998 40.779,2.722 41.056 C 2.501 41.277,2.462 103.669,2.683 103.936 C 2.831 104.114,4.665 104.158,12.218 104.164 L 21.570 104.171 22.035 104.617 L 22.500 105.062 22.976 104.606 L 23.452 104.150 35.845 104.161 L 48.238 104.172 48.702 104.617 L 49.167 105.062 49.625 104.633 C 49.978 104.303,50.306 104.187,51.048 104.130 C 51.578 104.089,52.103 103.964,52.214 103.852 C 52.393 103.674,52.489 91.082,52.500 66.375 C 52.500 65.697,52.558 65.500,52.758 65.500 C 53.169 65.500,53.879 64.691,53.784 64.330 C 53.737 64.151,53.780 64.027,53.883 64.047 C 53.986 64.068,54.090 63.760,54.124 63.339 C 54.196 62.436,54.123 62.508,55.014 62.458 L 55.750 62.417 55.791 61.681 C 55.842 60.767,55.677 60.859,57.370 60.797 C 59.025 60.735,58.998 60.750,59.119 59.847 L 59.211 59.167 62.500 59.167 L 65.789 59.167 65.881 59.847 C 65.997 60.717,66.038 60.750,66.991 60.750 C 67.732 60.750,67.798 60.785,67.936 61.250 C 68.031 61.573,68.274 61.839,68.621 62.000 C 69.030 62.190,69.160 62.358,69.163 62.697 C 69.170 63.604,69.442 63.987,70.161 64.102 L 70.833 64.209 70.849 65.063 C 70.858 65.533,70.853 66.188,70.838 66.519 C 70.822 66.875,70.918 67.227,71.072 67.382 C 71.216 67.525,71.333 67.710,71.333 67.792 C 71.333 68.005,72.067 68.667,72.302 68.667 C 72.454 68.667,72.500 72.842,72.500 86.417 L 72.500 104.167 95.646 104.167 C 115.611 104.167,118.820 104.134,118.992 103.926 C 119.123 103.768,119.173 103.196,119.138 102.259 C 119.108 101.475,119.140 100.833,119.208 100.833 C 119.277 100.833,119.333 101.053,119.333 101.321 C 119.333 101.999,119.759 102.378,120.432 102.300 C 120.732 102.265,120.937 102.301,120.888 102.379 C 120.840 102.458,120.901 102.508,121.025 102.491 C 122.198 102.330,122.601 102.489,122.531 103.086 C 122.441 103.860,122.739 104.195,123.488 104.161 C 123.815 104.146,124.467 104.142,124.936 104.151 L 125.789 104.167 125.881 104.847 C 126.008 105.796,125.774 105.745,130.242 105.800 L 134.290 105.850 134.442 106.381 C 134.661 107.143,135.168 107.328,137.046 107.331 L 138.676 107.333 139.380 106.592 L 140.083 105.850 144.266 105.800 C 148.709 105.747,148.997 105.694,149.003 104.938 C 149.008 104.249,149.212 104.152,150.676 104.149 C 152.289 104.146,152.500 104.030,152.500 103.146 C 152.500 102.530,152.525 102.500,153.042 102.492 C 154.976 102.464,155.667 102.245,155.667 101.660 C 155.667 101.028,155.859 100.833,156.484 100.833 C 157.263 100.833,157.500 100.594,157.500 99.809 L 157.500 99.185 158.292 99.134 L 159.083 99.083 159.134 98.292 C 159.186 97.491,159.244 97.435,159.967 97.495 C 160.495 97.538,160.858 97.194,160.825 96.680 C 160.776 95.897,160.819 95.833,161.405 95.833 C 162.158 95.833,162.529 95.443,162.495 94.685 C 162.454 93.783,162.480 93.667,162.721 93.667 C 162.980 93.667,163.667 92.976,163.667 92.715 C 163.667 92.617,163.779 92.492,163.917 92.440 C 164.088 92.374,164.167 92.106,164.167 91.589 C 164.167 91.028,164.231 90.833,164.417 90.833 C 164.554 90.833,164.667 90.933,164.667 91.054 C 164.667 91.322,165.361 92.000,165.636 92.000 C 165.763 92.000,165.833 92.313,165.833 92.883 C 165.833 93.933,166.021 94.167,166.867 94.167 C 167.518 94.167,167.558 94.219,167.508 95.013 C 167.474 95.550,167.871 95.897,168.405 95.795 C 169.005 95.680,169.241 95.905,169.198 96.550 C 169.154 97.199,169.457 97.542,170.033 97.495 C 170.767 97.434,170.833 97.487,170.833 98.133 C 170.833 98.949,171.068 99.167,171.950 99.167 C 172.631 99.167,172.667 99.191,172.667 99.655 C 172.667 100.332,173.093 100.712,173.765 100.633 C 174.065 100.598,174.273 100.629,174.228 100.701 C 174.184 100.774,174.526 100.833,174.990 100.833 L 175.833 100.833 175.833 101.467 C 175.833 102.391,176.031 102.500,177.700 102.500 L 179.167 102.500 179.167 103.071 C 179.167 104.069,179.412 104.167,181.929 104.167 L 184.167 104.167 184.167 104.813 C 184.167 105.624,184.454 105.867,185.366 105.831 C 188.502 105.706,194.667 105.854,194.667 106.054 C 194.667 107.614,199.643 108.012,201.051 106.565 L 201.750 105.847 206.417 105.798 C 211.627 105.744,211.947 105.684,212.226 104.708 L 212.382 104.167 213.566 104.151 C 215.900 104.121,215.747 104.176,215.774 103.365 C 215.805 102.453,215.667 102.525,217.506 102.467 L 219.083 102.417 219.115 101.690 C 219.156 100.765,219.059 100.819,220.683 100.816 C 222.286 100.812,222.500 100.695,222.500 99.822 L 222.500 99.185 223.292 99.134 L 224.083 99.083 224.134 98.292 C 224.183 97.528,224.204 97.499,224.717 97.481 C 225.859 97.440,225.773 97.526,225.814 96.384 C 225.833 95.870,225.861 95.850,226.625 95.801 L 227.417 95.750 227.467 94.967 L 227.518 94.184 228.300 94.134 L 229.083 94.083 229.134 93.292 C 229.186 92.483,229.231 92.442,230.013 92.492 C 230.527 92.524,230.871 92.162,230.828 91.634 C 230.756 90.762,230.812 90.667,231.396 90.667 C 232.250 90.667,232.444 90.171,232.489 87.875 C 232.499 87.373,232.541 87.333,233.063 87.333 C 233.983 87.333,234.137 86.815,234.158 83.649 L 234.167 82.382 234.708 82.226 C 235.746 81.929,235.745 81.930,235.792 73.274 C 235.839 64.404,235.847 64.477,234.877 64.271 L 234.191 64.124 234.137 61.826 C 234.077 59.248,234.110 59.339,233.180 59.214 C 232.528 59.127,232.500 59.098,232.492 58.520 C 232.459 55.976,232.471 56.009,231.514 55.881 C 230.920 55.801,230.831 55.734,230.816 55.353 C 230.770 54.220,230.792 54.252,230.014 54.209 C 229.117 54.159,229.178 54.223,229.142 53.287 C 229.126 52.862,229.057 52.548,228.989 52.590 C 228.920 52.633,228.899 52.534,228.942 52.370 C 229.091 51.800,228.720 51.205,228.135 51.078 C 227.501 50.940,227.339 50.754,227.336 50.158 C 227.333 49.618,227.049 49.334,226.508 49.331 C 225.912 49.327,225.726 49.165,225.589 48.532 C 225.447 47.880,225.049 47.686,223.584 47.553 C 222.384 47.445,222.508 47.544,222.458 46.652 C 222.414 45.875,222.446 45.897,221.314 45.851 C 220.933 45.836,220.866 45.746,220.786 45.153 C 220.657 44.194,220.691 44.207,218.125 44.175 C 217.512 44.167,217.500 44.155,217.500 43.520 C 217.500 42.727,217.212 42.464,216.383 42.503 C 214.313 42.599,214.000 42.535,214.000 42.012 C 214.000 41.387,213.617 41.008,212.946 40.969 C 212.655 40.952,212.267 40.922,212.083 40.902 C 211.900 40.882,210.803 40.859,209.646 40.850 L 207.543 40.833 207.435 40.161 C 207.276 39.165,207.373 39.176,198.091 39.176 C 188.771 39.177,189.167 39.128,189.167 40.262 L 189.167 40.833 186.708 40.849 C 185.356 40.858,183.965 40.852,183.617 40.836 C 182.788 40.798,182.500 41.060,182.500 41.854 L 182.500 42.500 181.031 42.500 C 179.273 42.500,178.241 42.892,177.947 43.673 C 177.781 44.111,177.688 44.156,176.841 44.201 L 175.917 44.250 175.866 45.042 L 175.815 45.833 174.419 45.833 C 172.822 45.833,172.500 46.016,172.500 46.919 C 172.500 47.472,172.486 47.483,171.708 47.533 L 170.917 47.583 170.866 48.366 L 170.816 49.149 170.033 49.200 L 169.250 49.250 169.199 50.042 C 169.152 50.773,169.114 50.835,168.699 50.851 C 167.553 50.896,167.586 50.874,167.542 51.652 C 167.492 52.544,167.479 52.559,166.766 52.533 C 166.152 52.510,165.790 52.802,165.840 53.282 C 165.916 54.007,165.832 54.124,165.160 54.232 C 164.678 54.309,164.444 54.445,164.337 54.711 C 164.163 55.146,164.109 54.818,164.162 53.648 C 164.196 52.890,163.825 52.500,163.071 52.500 C 162.563 52.500,162.498 52.449,162.482 52.042 C 162.438 50.886,162.461 50.919,161.681 50.875 C 160.789 50.826,160.861 50.897,160.798 49.995 C 160.743 49.216,160.753 49.223,159.717 49.186 C 159.204 49.167,159.183 49.139,159.134 48.375 L 159.083 47.583 158.292 47.533 C 157.528 47.484,157.499 47.463,157.481 46.949 C 157.443 45.914,157.451 45.924,156.672 45.869 C 155.766 45.805,155.821 45.860,155.782 44.977 C 155.748 44.200,155.809 44.239,154.544 44.183 C 154.241 44.170,154.150 44.040,154.063 43.496 C 153.924 42.625,153.680 42.535,151.377 42.507 C 150.877 42.500,150.829 42.450,150.730 41.830 C 150.582 40.904,150.394 40.853,147.071 40.839 L 145.725 40.833 145.571 40.208 C 145.331 39.236,145.004 39.198,136.797 39.188 C 128.906 39.179,129.167 39.142,129.167 40.262 L 129.167 40.833 127.208 40.849 C 123.994 40.874,124.254 40.805,124.226 41.635 C 124.195 42.547,124.333 42.475,122.494 42.533 C 120.748 42.589,120.908 42.466,120.850 43.792 C 120.835 44.128,120.748 44.167,120.000 44.167 L 119.167 44.167 119.150 22.958 C 119.141 11.294,119.122 1.563,119.109 1.333 C 119.083 0.910,119.062 0.902,117.875 0.850 C 117.586 0.837,117.495 0.728,117.480 0.375 L 117.461 -0.083 117.333 0.417 L 117.206 0.917 117.186 0.458 L 117.167 0.000 106.667 0.000 L 96.167 0.000 96.147 0.458 L 96.127 0.917 96.000 0.417 L 95.873 -0.083 95.853 0.375 M8.720 4.390 C 8.058 4.632,7.960 4.731,7.737 5.383 C 7.570 5.868,7.505 5.904,6.891 5.860 C 6.067 5.801,5.770 6.105,5.865 6.914 C 5.933 7.500,5.933 7.500,5.250 7.500 C 4.407 7.500,4.167 7.724,4.167 8.512 C 4.167 9.098,4.138 9.129,3.495 9.231 C 2.606 9.374,2.500 9.689,2.500 12.178 L 2.500 14.167 1.929 14.167 C 0.912 14.167,0.862 14.327,0.863 17.584 C 0.863 19.877,0.914 20.557,1.098 20.741 C 1.228 20.870,1.333 21.043,1.333 21.126 C 1.333 21.339,2.067 22.000,2.302 22.000 C 2.429 22.000,2.503 22.316,2.508 22.875 C 2.533 25.705,2.517 25.656,3.486 25.786 C 3.955 25.849,4.171 25.961,4.182 26.147 C 4.190 26.295,4.209 26.642,4.224 26.917 C 4.248 27.388,4.292 27.418,4.979 27.441 C 5.786 27.468,5.988 27.654,5.872 28.262 C 5.770 28.795,6.116 29.193,6.653 29.159 C 7.564 29.101,7.667 29.150,7.667 29.641 C 7.667 30.753,7.614 30.745,15.243 30.797 C 22.877 30.848,22.601 30.888,22.469 29.752 L 22.400 29.167 23.205 29.167 C 23.767 29.167,24.039 29.091,24.106 28.917 C 24.159 28.779,24.294 28.667,24.405 28.667 C 24.660 28.667,25.333 27.963,25.333 27.698 C 25.333 27.589,25.446 27.500,25.583 27.500 C 25.772 27.500,25.833 27.297,25.833 26.676 L 25.833 25.852 26.625 25.801 L 27.417 25.750 27.467 24.980 C 27.516 24.225,27.529 24.208,28.205 24.064 C 29.157 23.860,29.169 23.785,29.157 17.667 C 29.144 11.141,29.150 11.173,27.967 10.926 C 27.566 10.842,27.513 10.748,27.467 10.041 L 27.417 9.250 26.625 9.199 L 25.833 9.148 25.833 8.324 C 25.833 7.703,25.772 7.500,25.583 7.500 C 25.446 7.500,25.333 7.401,25.333 7.279 C 25.333 7.020,24.643 6.333,24.382 6.333 C 24.283 6.333,24.158 6.217,24.103 6.076 C 24.049 5.934,23.910 5.830,23.794 5.845 C 22.802 5.975,22.500 5.839,22.500 5.262 C 22.500 4.144,22.681 4.173,15.617 4.185 C 11.230 4.193,9.085 4.257,8.720 4.390 M8.918 5.499 C 8.751 5.683,8.539 5.833,8.445 5.833 C 8.352 5.833,8.451 5.646,8.666 5.417 C 9.125 4.929,9.363 5.007,8.918 5.499 M24.838 7.471 C 24.584 7.555,24.167 7.179,24.167 6.867 C 24.167 6.670,24.269 6.704,24.593 7.009 C 24.828 7.230,24.938 7.437,24.838 7.471 M2.329 21.078 C 2.702 21.528,2.415 21.692,2.009 21.260 C 1.704 20.935,1.670 20.833,1.867 20.833 C 2.009 20.833,2.217 20.943,2.329 21.078 M24.657 27.927 C 24.437 28.161,24.229 28.271,24.196 28.171 C 24.111 27.918,24.487 27.500,24.799 27.500 C 24.996 27.500,24.962 27.602,24.657 27.927 M8.880 30.320 C 8.814 30.416,8.000 29.640,8.000 29.482 C 8.000 29.412,8.209 29.556,8.464 29.802 C 8.718 30.049,8.906 30.282,8.880 30.320 M262.647 34.441 C 262.553 34.554,262.493 34.857,262.513 35.115 C 262.706 37.548,262.473 49.664,262.238 49.429 C 262.094 49.285,261.719 49.167,261.405 49.167 C 260.928 49.167,260.831 49.104,260.817 48.792 C 260.761 47.525,260.800 47.586,260.023 47.551 C 259.138 47.512,259.218 47.607,259.120 46.480 C 259.009 45.204,258.706 44.630,258.042 44.440 C 257.553 44.300,257.500 44.223,257.500 43.654 C 257.500 42.872,257.149 42.500,256.411 42.500 C 256.016 42.500,255.791 42.399,255.667 42.167 C 255.546 41.941,255.544 41.833,255.661 41.833 C 255.898 41.833,255.879 41.279,255.633 41.033 C 255.388 40.788,254.833 40.769,254.833 41.006 C 254.833 41.124,254.733 41.125,254.514 41.007 C 253.892 40.674,228.235 40.861,227.895 41.200 C 227.230 41.865,227.611 43.997,228.395 44.003 C 229.020 44.007,229.214 44.258,229.214 45.061 C 229.214 45.481,229.265 45.792,229.327 45.754 C 229.389 45.716,229.407 45.908,229.367 46.182 C 229.270 46.837,229.718 47.333,230.405 47.333 C 230.908 47.333,230.923 47.355,230.864 47.973 C 230.788 48.772,231.140 49.167,231.929 49.167 C 232.527 49.167,232.522 49.158,232.564 50.250 C 232.582 50.722,232.623 50.751,233.293 50.765 C 234.162 50.784,234.138 50.761,234.202 51.670 L 234.254 52.413 234.996 52.465 C 235.912 52.529,235.807 52.341,235.870 54.037 C 235.931 55.692,235.917 55.665,236.820 55.786 C 237.515 55.879,237.555 55.932,237.508 56.680 C 237.474 57.217,237.871 57.563,238.405 57.461 C 238.999 57.348,239.144 57.506,239.202 58.338 C 239.257 59.119,239.246 59.110,240.292 59.147 L 240.833 59.167 240.853 60.208 C 240.888 62.042,240.973 62.227,241.863 62.389 C 242.634 62.530,242.640 62.536,242.549 63.098 C 242.419 63.899,242.733 64.224,243.535 64.116 C 244.148 64.034,244.167 64.047,244.184 64.558 C 244.226 65.787,244.200 65.747,244.986 65.791 C 245.883 65.841,245.822 65.777,245.858 66.713 C 245.874 67.138,245.943 67.452,246.011 67.410 C 246.080 67.367,246.101 67.466,246.058 67.630 C 245.902 68.228,246.283 68.809,246.909 68.926 C 247.463 69.030,247.500 69.077,247.500 69.673 C 247.500 70.466,247.850 70.833,248.604 70.833 L 249.184 70.833 249.134 71.708 L 249.083 72.583 248.532 72.530 C 247.780 72.457,247.468 72.753,247.532 73.480 C 247.582 74.058,247.568 74.073,246.852 74.197 C 245.936 74.356,245.926 74.367,245.921 75.245 C 245.917 75.954,245.903 75.972,245.286 76.071 C 244.619 76.178,244.228 76.746,244.391 77.370 C 244.435 77.536,244.397 77.623,244.307 77.567 C 244.217 77.512,244.158 77.568,244.175 77.692 C 244.338 78.879,244.196 79.147,243.375 79.199 L 242.583 79.250 242.533 80.042 C 242.489 80.724,242.431 80.836,242.116 80.850 C 240.791 80.909,240.908 80.791,240.850 82.125 C 240.836 82.445,240.741 82.500,240.200 82.500 C 239.407 82.500,239.167 82.735,239.167 83.512 C 239.167 84.098,239.138 84.129,238.495 84.231 C 237.724 84.355,237.500 84.730,237.500 85.896 C 237.500 86.659,236.927 87.406,236.250 87.527 C 235.982 87.575,235.907 87.739,235.866 88.368 L 235.816 89.149 235.033 89.200 L 234.250 89.250 234.167 90.083 L 234.083 90.917 233.487 90.865 C 232.754 90.801,232.453 91.114,232.528 91.862 C 232.581 92.388,232.557 92.411,231.852 92.532 C 230.952 92.686,230.979 92.657,230.878 93.553 C 230.807 94.183,230.719 94.323,230.272 94.520 C 229.616 94.809,229.185 95.668,229.175 96.708 C 229.167 97.455,229.140 97.501,228.708 97.518 C 227.480 97.565,227.566 97.480,227.518 98.699 C 227.501 99.114,227.439 99.152,226.708 99.199 L 225.917 99.250 225.866 100.042 C 225.816 100.820,225.805 100.833,225.253 100.833 C 224.389 100.833,224.167 101.175,224.167 102.500 C 224.167 104.347,222.576 104.171,239.172 104.165 C 255.319 104.159,254.167 104.250,254.167 102.988 C 254.167 102.380,254.200 102.333,254.641 102.333 C 255.281 102.333,255.726 101.816,255.633 101.182 C 255.593 100.908,255.610 100.715,255.670 100.752 C 255.730 100.789,255.793 100.472,255.809 100.046 C 255.844 99.110,255.784 99.175,256.681 99.125 C 257.413 99.084,257.417 99.080,257.453 98.426 C 257.506 97.471,257.573 97.377,258.153 97.462 C 258.866 97.567,259.199 97.247,259.136 96.517 C 259.086 95.938,259.100 95.923,259.816 95.801 C 260.726 95.645,260.699 95.677,260.795 94.670 C 260.850 94.097,260.950 93.833,261.112 93.833 C 261.490 93.833,262.210 93.016,262.123 92.685 C 262.077 92.508,262.137 92.389,262.273 92.389 C 262.462 92.389,262.503 94.031,262.519 102.153 C 262.530 107.523,262.549 112.029,262.561 112.167 C 262.581 112.388,270.288 112.417,330.833 112.417 L 399.083 112.417 399.126 73.555 C 399.165 37.688,399.148 34.671,398.895 34.419 C 398.532 34.056,262.948 34.078,262.647 34.441 M61.619 39.883 C 61.416 40.094,61.219 40.245,61.182 40.218 C 61.084 40.148,61.691 39.500,61.853 39.500 C 61.927 39.500,61.822 39.673,61.619 39.883 M228.792 41.375 C 228.753 41.490,228.616 41.583,228.486 41.583 C 228.356 41.583,228.250 41.690,228.250 41.819 C 228.250 41.949,228.137 42.086,228.000 42.124 C 227.778 42.184,227.778 42.172,228.000 42.015 C 228.137 41.918,228.185 41.837,228.105 41.836 C 228.025 41.834,228.052 41.722,228.165 41.585 C 228.278 41.449,228.438 41.378,228.519 41.428 C 228.600 41.479,228.667 41.440,228.667 41.343 C 228.667 41.246,228.710 41.167,228.764 41.167 C 228.817 41.167,228.830 41.260,228.792 41.375 M51.901 42.858 C 51.757 43.091,50.833 42.293,50.833 41.936 C 50.833 41.644,50.907 41.673,51.410 42.160 C 51.727 42.468,51.948 42.782,51.901 42.858 M257.170 42.921 C 257.492 43.309,257.262 43.382,256.918 43.001 C 256.751 42.817,256.692 42.667,256.787 42.667 C 256.882 42.667,257.054 42.781,257.170 42.921 M228.250 43.181 C 228.250 43.310,228.356 43.417,228.486 43.417 C 228.616 43.417,228.742 43.512,228.765 43.629 C 228.789 43.746,228.770 43.764,228.723 43.670 C 228.676 43.575,228.578 43.535,228.505 43.580 C 228.431 43.626,228.278 43.551,228.165 43.415 C 228.052 43.278,228.025 43.166,228.105 43.164 C 228.185 43.163,228.137 43.082,228.000 42.985 C 227.778 42.828,227.778 42.816,228.000 42.876 C 228.137 42.914,228.250 43.051,228.250 43.181 M84.930 44.126 C 84.848 44.208,84.167 43.549,84.167 43.388 C 84.167 43.326,84.354 43.451,84.583 43.666 C 84.811 43.881,84.968 44.088,84.930 44.126 M179.104 43.922 C 179.053 44.057,178.845 44.167,178.643 44.167 L 178.275 44.167 178.676 43.740 C 179.065 43.326,179.295 43.425,179.104 43.922 M258.250 45.805 C 258.140 45.916,257.500 45.325,257.500 45.112 C 257.500 45.018,257.687 45.118,257.916 45.333 C 258.145 45.548,258.295 45.760,258.250 45.805 M325.833 47.500 C 325.833 48.970,325.799 49.168,325.542 49.182 C 324.145 49.255,324.252 49.191,324.226 49.969 C 324.195 50.891,324.279 50.844,322.610 50.858 C 320.970 50.872,320.738 51.014,320.885 51.918 C 320.968 52.431,320.936 52.502,320.615 52.515 C 319.088 52.579,319.258 52.418,319.182 53.875 C 319.170 54.099,319.020 54.167,318.533 54.167 C 317.609 54.167,317.500 54.364,317.500 56.033 L 317.500 57.500 316.854 57.500 C 315.806 57.500,315.827 57.368,315.838 63.903 C 315.849 70.535,315.860 70.614,316.820 70.767 C 317.473 70.872,317.484 70.885,317.533 71.645 L 317.583 72.417 318.366 72.467 L 319.149 72.518 319.200 73.300 L 319.250 74.083 320.042 74.134 C 320.818 74.184,320.834 74.196,320.854 74.759 C 320.866 75.075,320.884 75.425,320.896 75.536 C 320.908 75.652,321.239 75.766,321.667 75.801 C 322.572 75.877,322.473 75.777,322.536 76.672 C 322.591 77.452,322.580 77.444,323.625 77.481 C 324.127 77.499,324.167 77.542,324.167 78.071 C 324.167 78.825,324.557 79.196,325.315 79.162 C 327.325 79.071,327.448 79.108,327.565 79.839 C 327.705 80.715,327.957 80.802,330.409 80.821 C 332.674 80.838,332.634 80.826,332.536 81.494 C 332.439 82.157,332.761 82.527,333.404 82.493 C 333.686 82.478,334.348 82.474,334.875 82.483 L 335.833 82.500 335.833 84.142 L 335.833 85.784 334.554 85.893 C 333.116 86.014,332.667 86.284,332.667 87.026 C 332.667 87.488,332.644 87.500,331.774 87.500 L 330.881 87.500 330.732 86.803 C 330.547 85.935,330.321 85.862,327.798 85.846 C 325.648 85.833,325.843 85.916,325.791 84.986 C 325.747 84.202,325.785 84.227,324.575 84.184 C 324.095 84.168,324.071 84.135,324.135 83.581 C 324.252 82.580,324.086 82.514,321.529 82.551 L 319.250 82.583 319.225 83.000 C 319.211 83.229,319.192 83.581,319.183 83.783 C 319.169 84.098,319.058 84.155,318.375 84.199 L 317.583 84.250 317.533 85.033 L 317.482 85.816 316.701 85.866 C 316.072 85.907,315.908 85.982,315.860 86.250 C 315.771 86.749,314.990 87.500,314.560 87.500 C 314.184 87.500,314.183 87.506,314.216 89.958 L 314.250 92.417 314.667 92.442 C 314.896 92.456,315.252 92.475,315.458 92.484 C 315.779 92.498,315.833 92.593,315.833 93.133 C 315.833 93.927,316.068 94.167,316.849 94.167 C 317.474 94.167,317.667 94.361,317.667 94.993 C 317.667 95.578,318.357 95.797,320.292 95.825 C 320.796 95.833,320.833 95.873,320.833 96.405 C 320.833 97.306,321.144 97.486,322.689 97.482 C 324.209 97.479,324.167 97.461,324.315 98.184 C 324.430 98.749,324.633 98.921,325.375 99.077 C 325.801 99.166,325.833 99.232,325.833 100.003 L 325.833 100.833 314.935 100.833 L 304.036 100.833 303.921 100.376 C 303.765 99.753,303.561 99.540,303.005 99.418 C 302.598 99.328,302.513 99.207,302.391 98.537 C 302.254 97.789,302.222 97.755,301.541 97.620 C 300.876 97.489,300.833 97.446,300.833 96.919 C 300.833 96.202,300.461 95.833,299.738 95.833 C 299.311 95.833,299.163 95.760,299.151 95.542 C 299.080 94.190,299.107 94.251,298.583 94.224 C 298.308 94.209,297.956 94.190,297.801 94.182 C 297.585 94.170,297.506 93.981,297.467 93.375 L 297.417 92.583 296.625 92.533 C 295.804 92.480,295.662 92.212,295.825 91.025 C 295.842 90.901,295.789 90.841,295.708 90.891 C 295.627 90.941,295.592 90.769,295.630 90.508 C 295.718 89.910,295.184 89.334,294.542 89.333 C 294.111 89.332,294.083 89.287,294.079 88.593 C 294.074 87.699,294.065 87.689,293.149 87.532 C 292.433 87.410,292.420 87.396,292.470 86.816 C 292.532 86.087,292.217 85.786,291.467 85.862 C 290.920 85.916,290.916 85.912,290.833 85.083 L 290.750 84.250 289.958 84.199 C 289.194 84.150,289.166 84.130,289.147 83.616 C 289.113 82.652,289.087 82.584,288.731 82.533 C 288.037 82.434,287.509 81.650,287.418 80.584 C 287.321 79.441,287.297 79.409,286.417 79.264 C 285.907 79.180,285.809 79.198,286.000 79.340 C 286.222 79.505,286.222 79.518,286.000 79.456 C 285.814 79.405,285.764 79.195,285.804 78.641 C 285.870 77.730,285.589 77.434,284.752 77.531 C 284.124 77.605,284.150 77.650,284.103 76.417 C 284.084 75.945,284.043 75.916,283.373 75.901 C 282.501 75.882,282.488 75.870,282.443 74.981 L 282.407 74.260 281.686 74.224 C 280.807 74.179,280.885 74.273,280.787 73.147 C 280.677 71.880,280.375 71.321,279.667 71.067 L 279.083 70.859 279.667 70.827 C 279.987 70.809,280.361 70.785,280.498 70.772 C 280.667 70.757,280.762 70.516,280.798 70.005 C 280.862 69.099,280.806 69.155,281.690 69.115 C 282.467 69.081,282.428 69.142,282.484 67.875 C 282.497 67.562,282.595 67.500,283.071 67.500 C 283.856 67.500,284.212 67.105,284.136 66.315 C 284.083 65.757,284.125 65.672,284.495 65.578 C 285.333 65.368,285.833 64.493,285.833 63.239 L 285.833 62.518 286.625 62.467 L 287.417 62.417 287.467 61.625 L 287.518 60.833 288.142 60.833 C 288.949 60.833,289.167 60.596,289.167 59.717 C 289.167 59.035,289.191 59.000,289.655 59.000 C 290.193 59.000,290.663 58.630,290.674 58.196 C 290.726 56.043,290.812 55.840,291.681 55.791 C 292.413 55.750,292.417 55.746,292.453 55.093 C 292.506 54.137,292.573 54.044,293.153 54.129 C 293.866 54.234,294.199 53.913,294.136 53.184 C 294.087 52.610,294.105 52.590,294.801 52.452 C 295.666 52.281,295.800 52.011,295.813 50.423 C 295.823 49.083,295.748 49.196,296.670 49.132 L 297.413 49.080 297.465 48.337 C 297.528 47.430,297.488 47.470,298.365 47.441 C 299.142 47.415,299.078 47.522,299.151 46.125 C 299.166 45.850,299.919 45.833,312.500 45.833 L 325.833 45.833 325.833 47.500 M372.500 46.405 C 372.500 47.131,372.869 47.500,373.595 47.500 C 374.214 47.500,374.262 47.683,374.172 49.685 C 374.137 50.443,374.508 50.833,375.262 50.833 C 375.770 50.833,375.835 50.884,375.851 51.292 C 375.898 52.519,375.815 52.433,377.017 52.482 C 377.438 52.499,377.454 52.539,377.556 53.866 C 377.687 55.564,377.770 55.646,379.467 55.777 L 380.833 55.883 380.853 56.400 C 380.890 57.417,380.884 57.410,381.661 57.464 C 382.573 57.529,382.549 57.505,382.568 58.373 C 382.585 59.173,382.374 59.099,384.776 59.144 L 385.968 59.167 385.884 59.799 C 385.775 60.606,386.100 60.915,386.918 60.782 L 387.500 60.688 387.500 73.646 L 387.500 86.604 387.028 87.056 C 386.579 87.487,386.475 87.509,384.851 87.514 C 382.930 87.521,382.500 87.732,382.500 88.667 C 382.500 89.069,382.427 89.170,382.125 89.183 C 380.858 89.239,380.919 89.200,380.885 89.977 C 380.845 90.860,380.900 90.805,379.996 90.868 L 379.254 90.920 379.202 91.663 C 379.139 92.560,379.227 92.472,378.330 92.535 L 377.587 92.587 377.535 93.330 C 377.472 94.236,377.512 94.196,376.635 94.226 C 375.960 94.249,375.915 94.280,375.890 94.750 C 375.876 95.025,375.857 95.371,375.849 95.520 C 375.838 95.705,375.621 95.818,375.153 95.881 C 374.195 96.009,374.208 95.976,374.175 98.518 C 374.167 99.089,374.131 99.127,373.459 99.269 C 372.797 99.408,372.742 99.464,372.602 100.126 L 372.453 100.833 354.976 100.833 L 337.500 100.833 337.500 99.913 C 337.500 99.016,337.510 98.996,337.917 99.098 C 338.529 99.252,339.167 99.046,339.167 98.695 C 339.167 98.028,340.102 97.426,341.074 97.466 C 342.144 97.511,342.500 97.246,342.500 96.405 C 342.500 95.897,342.551 95.831,342.958 95.816 C 344.187 95.768,344.101 95.853,344.149 94.634 C 344.165 94.219,344.227 94.181,344.958 94.134 L 345.750 94.083 345.800 93.312 C 345.849 92.552,345.860 92.538,346.514 92.434 C 347.488 92.278,347.492 92.246,347.492 84.758 C 347.493 77.288,347.524 77.500,346.414 77.500 C 345.861 77.500,345.851 77.486,345.801 76.708 L 345.750 75.917 344.958 75.866 C 344.139 75.813,344.001 75.557,344.154 74.375 C 344.169 74.260,344.006 74.167,343.788 74.167 C 343.346 74.167,342.563 73.423,342.473 72.917 C 342.424 72.642,342.261 72.575,341.552 72.533 L 340.690 72.483 340.783 71.910 C 340.908 71.142,340.607 70.801,339.845 70.845 C 339.518 70.864,338.866 70.869,338.397 70.857 L 337.544 70.833 337.453 70.153 C 337.328 69.222,337.424 69.256,334.771 69.197 L 332.403 69.143 332.470 68.569 C 332.564 67.768,332.263 67.467,331.429 67.529 C 330.786 67.576,330.747 67.552,330.694 67.081 C 330.620 66.415,330.243 66.029,329.608 65.968 C 328.944 65.903,328.950 65.327,329.622 64.626 L 330.069 64.160 329.621 63.712 L 329.174 63.264 328.712 63.697 C 327.800 64.551,327.500 64.488,327.500 63.446 C 327.500 62.478,327.665 62.277,328.318 62.448 C 328.811 62.577,329.211 62.195,329.114 61.687 C 328.962 60.895,329.087 60.833,330.849 60.833 L 332.496 60.833 332.603 61.504 C 332.741 62.367,332.719 62.358,334.807 62.449 C 336.718 62.533,337.408 62.857,337.533 63.731 C 337.582 64.074,337.667 64.084,340.695 64.116 C 344.169 64.153,344.284 64.119,344.118 63.098 C 344.027 62.536,344.033 62.530,344.803 62.389 C 345.694 62.227,345.779 62.042,345.814 60.208 L 345.833 59.167 346.375 59.147 C 346.673 59.137,347.029 59.118,347.167 59.106 C 347.376 59.087,347.417 58.694,347.417 56.667 L 347.417 54.250 346.625 54.199 C 345.790 54.146,345.811 54.174,345.769 53.083 L 345.750 52.583 344.173 52.534 C 342.327 52.476,342.509 52.570,342.458 51.652 L 342.417 50.917 340.837 50.865 C 339.153 50.810,338.965 50.715,339.109 49.999 C 339.214 49.473,338.823 49.087,338.318 49.219 C 337.584 49.411,337.500 49.232,337.500 47.482 L 337.500 45.833 355.000 45.833 L 372.500 45.833 372.500 46.405 M230.546 46.987 C 230.481 47.083,229.667 46.306,229.667 46.148 C 229.667 46.078,229.875 46.223,230.130 46.469 C 230.385 46.715,230.572 46.948,230.546 46.987 M224.378 48.000 C 224.634 48.000,225.333 48.681,225.333 48.931 C 225.333 49.044,225.224 49.121,225.091 49.102 C 224.762 49.053,224.155 48.487,224.257 48.323 C 224.302 48.249,224.263 48.143,224.169 48.085 C 224.076 48.027,224.006 47.891,224.013 47.782 C 224.023 47.639,224.050 47.641,224.110 47.792 C 224.157 47.906,224.277 48.000,224.378 48.000 M226.333 49.677 C 226.333 49.774,226.400 49.812,226.481 49.762 C 226.562 49.711,226.722 49.782,226.835 49.919 C 226.948 50.055,226.975 50.168,226.895 50.169 C 226.815 50.171,226.860 50.242,226.995 50.327 C 227.130 50.412,227.195 50.527,227.140 50.582 C 227.086 50.637,226.806 50.447,226.520 50.161 C 225.962 49.603,225.907 49.500,226.167 49.500 C 226.258 49.500,226.333 49.579,226.333 49.677 M93.584 51.501 C 94.010 51.972,93.829 52.016,93.381 51.550 C 93.178 51.339,93.073 51.167,93.147 51.167 C 93.221 51.167,93.418 51.317,93.584 51.501 M228.281 51.696 C 228.722 52.110,228.783 52.444,228.417 52.444 C 228.126 52.444,227.616 51.925,227.565 51.575 C 227.513 51.224,227.837 51.279,228.281 51.696 M266.833 58.151 C 267.063 58.274,267.423 58.534,267.635 58.729 C 267.847 58.924,268.484 59.233,269.052 59.417 C 269.942 59.704,270.125 59.836,270.388 60.373 C 270.570 60.746,270.913 61.101,271.240 61.256 C 271.869 61.555,272.050 61.884,272.333 63.249 C 272.468 63.901,272.663 64.330,272.912 64.526 C 273.958 65.349,273.845 69.177,272.756 69.786 C 272.623 69.861,272.391 70.409,272.241 71.003 C 272.042 71.795,271.804 72.261,271.349 72.750 C 271.008 73.117,270.560 73.760,270.354 74.179 C 270.147 74.598,269.750 75.076,269.472 75.240 C 269.193 75.405,268.814 75.796,268.629 76.110 C 268.444 76.424,267.999 76.831,267.640 77.014 C 266.646 77.521,266.930 77.609,269.869 77.708 C 273.797 77.840,273.833 77.870,273.833 81.015 C 273.833 84.235,274.547 84.052,262.304 83.971 C 254.193 83.918,254.014 83.909,253.554 83.566 C 252.600 82.856,252.687 81.772,253.747 81.146 C 254.070 80.956,254.333 80.705,254.333 80.589 C 254.333 80.193,254.989 79.544,255.491 79.444 C 255.864 79.369,256.055 79.192,256.240 78.749 C 256.412 78.336,256.672 78.078,257.089 77.904 C 257.499 77.732,257.766 77.471,257.930 77.078 C 258.092 76.689,258.360 76.424,258.758 76.258 C 259.160 76.090,259.423 75.826,259.591 75.424 C 259.758 75.025,260.022 74.759,260.416 74.594 C 260.832 74.420,261.068 74.170,261.255 73.704 C 261.429 73.267,261.695 72.969,262.067 72.791 C 262.455 72.606,262.649 72.380,262.719 72.029 C 262.775 71.752,263.145 71.208,263.551 70.806 C 264.685 69.686,265.211 66.622,264.444 65.600 C 263.766 64.695,260.951 65.482,260.670 66.654 C 260.381 67.857,259.949 68.452,259.217 68.656 C 257.816 69.045,256.333 68.714,255.977 67.934 C 255.859 67.674,255.593 67.474,255.273 67.403 C 254.699 67.277,253.697 66.688,253.354 66.275 C 253.046 65.904,253.234 65.267,253.838 64.635 C 254.111 64.350,254.335 63.960,254.337 63.767 C 254.344 63.138,254.951 62.054,255.556 61.593 C 255.882 61.344,256.303 60.880,256.490 60.563 C 256.841 59.969,257.923 59.344,258.615 59.337 C 258.815 59.335,259.233 59.064,259.544 58.735 C 259.854 58.406,260.365 58.072,260.679 57.994 C 261.590 57.765,266.343 57.887,266.833 58.151 M133.924 60.833 L 135.968 60.833 135.884 61.465 C 135.777 62.262,136.102 62.581,136.891 62.453 C 137.546 62.347,137.688 62.427,137.965 63.058 C 138.082 63.323,138.392 63.614,138.670 63.719 C 138.943 63.822,139.167 63.953,139.167 64.010 C 139.167 64.066,139.518 64.126,139.947 64.142 C 140.910 64.179,140.807 64.004,140.870 65.703 C 140.931 67.359,140.917 67.332,141.820 67.453 L 142.500 67.544 142.506 68.730 C 142.522 71.682,142.574 72.187,142.884 72.413 C 143.081 72.557,143.116 72.656,142.986 72.699 C 142.702 72.794,142.521 74.393,142.511 76.881 C 142.501 79.345,142.514 79.302,141.839 79.203 C 141.136 79.100,140.801 79.423,140.863 80.146 C 140.913 80.717,140.892 80.740,140.165 80.917 C 139.465 81.087,139.407 81.144,139.268 81.799 C 139.130 82.450,139.080 82.500,138.572 82.500 C 137.868 82.500,137.500 82.876,137.500 83.595 C 137.500 84.220,137.396 84.249,135.398 84.171 C 134.553 84.138,134.167 84.480,134.167 85.262 L 134.167 85.833 130.833 85.833 L 127.500 85.833 127.500 85.262 C 127.500 84.508,127.110 84.137,126.352 84.172 C 126.021 84.187,125.371 84.192,124.908 84.183 L 124.067 84.167 124.135 83.581 C 124.230 82.773,123.927 82.456,123.134 82.532 C 122.503 82.592,122.500 82.589,122.500 81.975 C 122.500 81.204,122.144 80.833,121.405 80.833 C 120.928 80.833,120.831 80.771,120.817 80.458 C 120.761 79.192,120.800 79.252,120.023 79.218 C 119.624 79.200,119.274 79.163,119.246 79.135 C 119.171 79.060,119.135 76.147,119.152 71.542 L 119.167 67.500 119.738 67.500 C 120.522 67.500,120.878 67.104,120.803 66.318 C 120.747 65.727,120.775 65.683,121.272 65.590 C 121.927 65.467,122.193 65.160,122.248 64.460 C 122.287 63.961,122.332 63.921,122.801 63.970 C 123.421 64.034,124.000 63.525,124.000 62.917 C 124.000 62.484,124.078 62.448,124.929 62.493 C 125.575 62.528,125.876 62.174,125.805 61.467 L 125.750 60.917 128.083 60.818 C 129.367 60.764,130.746 60.745,131.148 60.776 C 131.551 60.808,132.800 60.833,133.924 60.833 M200.292 60.831 L 202.500 60.833 202.500 61.405 C 202.500 62.318,202.819 62.500,204.419 62.500 L 205.815 62.500 205.866 63.292 L 205.917 64.083 206.708 64.134 C 207.472 64.183,207.501 64.204,207.519 64.717 C 207.557 65.753,207.549 65.743,208.328 65.798 C 208.737 65.827,209.088 65.866,209.108 65.886 C 209.127 65.905,209.167 66.945,209.197 68.197 C 209.256 70.750,209.224 70.661,210.153 70.786 L 210.833 70.877 210.833 73.405 L 210.833 75.933 210.248 75.865 C 209.473 75.774,209.139 76.072,209.172 76.821 C 209.187 77.149,209.192 77.810,209.183 78.292 L 209.167 79.167 208.595 79.167 C 207.811 79.167,207.455 79.562,207.530 80.349 C 207.586 80.940,207.558 80.983,207.062 81.076 C 206.459 81.190,206.240 81.401,206.084 82.022 C 205.990 82.394,205.862 82.472,205.229 82.544 C 204.323 82.646,204.327 82.642,204.214 83.486 C 204.114 84.233,204.084 84.243,202.220 84.170 C 201.372 84.137,200.833 84.588,200.833 85.333 L 200.833 85.833 197.427 85.833 L 194.021 85.833 194.115 85.251 C 194.261 84.351,194.034 84.212,192.402 84.204 C 190.743 84.197,190.805 84.231,190.774 83.302 C 190.750 82.594,190.741 82.583,190.142 82.566 C 189.195 82.539,189.043 82.431,189.129 81.847 C 189.231 81.152,188.911 80.801,188.230 80.860 C 187.536 80.920,187.547 80.935,187.445 79.750 C 187.316 78.253,187.122 77.871,186.424 77.740 L 185.833 77.630 185.833 72.565 L 185.833 67.500 186.208 67.484 C 187.541 67.425,187.423 67.542,187.484 66.230 C 187.497 65.947,187.635 65.859,188.180 65.786 C 189.014 65.674,189.008 65.680,189.117 64.866 C 189.200 64.242,189.242 64.200,189.866 64.117 C 190.680 64.008,190.674 64.014,190.786 63.180 C 190.859 62.635,190.947 62.497,191.230 62.484 C 192.542 62.423,192.425 62.541,192.484 61.213 C 192.499 60.860,196.177 60.559,197.750 60.782 C 197.933 60.808,199.077 60.830,200.292 60.831 M69.167 61.250 C 69.167 61.479,69.142 61.667,69.112 61.667 C 69.083 61.667,68.882 61.479,68.667 61.250 L 68.275 60.833 68.721 60.833 C 69.085 60.833,69.167 60.909,69.167 61.250 M241.884 62.152 C 241.815 62.249,241.167 61.643,241.167 61.480 C 241.167 61.406,241.339 61.511,241.550 61.714 C 241.761 61.917,241.911 62.114,241.884 62.152 M333.551 62.152 C 333.481 62.249,332.833 61.643,332.833 61.480 C 332.833 61.406,333.006 61.511,333.217 61.714 C 333.428 61.917,333.578 62.114,333.551 62.152 M123.322 63.262 C 123.113 63.485,122.849 63.667,122.735 63.667 C 122.622 63.667,122.766 63.423,123.056 63.125 C 123.655 62.510,123.907 62.640,123.322 63.262 M139.104 62.745 C 139.295 63.242,139.065 63.340,138.676 62.927 L 138.275 62.500 138.643 62.500 C 138.845 62.500,139.053 62.610,139.104 62.745 M52.991 64.593 C 52.770 64.828,52.563 64.938,52.529 64.838 C 52.415 64.494,52.656 64.167,53.024 64.167 L 53.391 64.167 52.991 64.593 M121.334 64.583 C 121.119 64.811,120.906 64.962,120.861 64.917 C 120.751 64.806,121.342 64.167,121.555 64.167 C 121.648 64.167,121.549 64.354,121.334 64.583 M284.657 64.593 C 284.437 64.828,284.229 64.938,284.196 64.838 C 284.081 64.494,284.323 64.167,284.690 64.167 L 285.058 64.167 284.657 64.593 M329.999 66.749 C 330.214 66.978,330.359 67.187,330.320 67.213 C 330.282 67.239,330.049 67.052,329.802 66.797 C 329.556 66.542,329.412 66.333,329.482 66.333 C 329.551 66.333,329.784 66.521,329.999 66.749 M247.116 67.869 C 247.453 68.242,247.544 68.667,247.288 68.667 C 247.039 68.667,246.333 67.988,246.333 67.749 C 246.333 67.449,246.801 67.521,247.116 67.869 M279.917 72.472 C 279.806 72.583,279.167 71.991,279.167 71.778 C 279.167 71.685,279.354 71.784,279.583 71.999 C 279.811 72.214,279.962 72.427,279.917 72.472 M245.778 76.583 C 245.778 76.874,245.258 77.384,244.909 77.435 C 244.558 77.487,244.612 77.163,245.029 76.719 C 245.443 76.278,245.778 76.217,245.778 76.583 M286.918 79.834 C 287.344 80.305,287.162 80.349,286.714 79.883 C 286.511 79.673,286.406 79.500,286.480 79.500 C 286.554 79.500,286.751 79.650,286.918 79.834 M323.674 80.409 L 323.290 80.817 324.570 82.097 L 325.849 83.376 326.258 82.992 C 326.839 82.446,326.853 80.900,326.281 80.362 C 325.701 79.818,324.204 79.845,323.674 80.409 M234.752 81.165 C 234.489 81.439,234.231 81.620,234.179 81.567 C 234.083 81.471,234.927 80.667,235.124 80.667 C 235.182 80.667,235.014 80.891,234.752 81.165 M207.251 82.166 C 207.085 82.350,206.872 82.500,206.778 82.500 C 206.685 82.500,206.784 82.313,206.999 82.084 C 207.458 81.596,207.697 81.673,207.251 82.166 M235.329 83.755 L 234.933 84.176 235.383 84.626 L 235.833 85.076 236.283 84.626 L 236.733 84.176 236.338 83.755 C 236.120 83.523,235.893 83.333,235.833 83.333 C 235.774 83.333,235.547 83.523,235.329 83.755 M330.333 83.750 L 329.942 84.167 330.333 84.583 C 330.661 84.932,330.877 85.000,331.667 85.000 C 332.456 85.000,332.672 84.932,333.000 84.583 L 333.391 84.167 333.000 83.750 C 332.672 83.401,332.456 83.333,331.667 83.333 C 330.877 83.333,330.661 83.401,330.333 83.750 M333.531 86.797 C 333.285 87.052,333.052 87.239,333.013 87.213 C 332.917 87.148,333.694 86.333,333.852 86.333 C 333.922 86.333,333.777 86.542,333.531 86.797 M294.989 90.071 C 295.573 90.694,295.321 90.823,294.723 90.208 C 294.433 89.910,294.288 89.667,294.402 89.667 C 294.516 89.667,294.780 89.849,294.989 90.071 M261.324 92.927 C 261.104 93.161,260.896 93.271,260.863 93.171 C 260.748 92.828,260.990 92.500,261.357 92.500 L 261.725 92.500 261.324 92.927 M230.514 95.486 C 230.021 95.979,229.862 95.919,230.333 95.417 C 230.548 95.189,230.754 95.032,230.792 95.070 C 230.830 95.108,230.705 95.295,230.514 95.486 M303.250 100.805 C 303.140 100.916,302.500 100.325,302.500 100.112 C 302.500 100.018,302.687 100.118,302.916 100.333 C 303.145 100.548,303.295 100.760,303.250 100.805 M254.999 101.584 C 254.784 101.813,254.551 102.000,254.482 102.000 C 254.412 102.000,254.556 101.791,254.802 101.536 C 255.049 101.282,255.282 101.094,255.320 101.120 C 255.359 101.147,255.214 101.355,254.999 101.584 M155.374 101.277 C 155.259 101.324,155.202 101.422,155.247 101.495 C 155.293 101.569,155.218 101.722,155.081 101.835 C 154.945 101.948,154.832 101.975,154.831 101.895 C 154.829 101.815,154.749 101.862,154.651 102.000 C 154.494 102.222,154.482 102.222,154.543 102.000 C 154.580 101.862,154.717 101.750,154.847 101.750 C 154.977 101.750,155.093 101.656,155.104 101.542 C 155.139 101.193,155.159 101.166,155.375 101.180 C 155.541 101.190,155.540 101.210,155.374 101.277 M211.334 104.583 C 211.119 104.811,210.906 104.962,210.861 104.917 C 210.751 104.806,211.342 104.167,211.555 104.167 C 211.648 104.167,211.549 104.354,211.334 104.583 M148.707 104.611 C 148.592 104.657,148.535 104.755,148.580 104.829 C 148.626 104.902,148.551 105.055,148.415 105.168 C 148.278 105.281,148.166 105.309,148.164 105.229 C 148.163 105.149,148.082 105.196,147.985 105.333 C 147.828 105.556,147.816 105.556,147.876 105.333 C 147.914 105.196,148.051 105.083,148.181 105.083 C 148.310 105.083,148.426 104.990,148.438 104.875 C 148.472 104.526,148.492 104.500,148.708 104.513 C 148.874 104.524,148.874 104.544,148.707 104.611 M135.766 106.250 C 136.233 106.567,136.302 106.667,136.052 106.667 C 135.872 106.667,135.549 106.479,135.333 106.250 C 135.118 106.021,134.989 105.833,135.047 105.833 C 135.105 105.833,135.428 106.021,135.766 106.250 " stroke="none" fill="#2c4f45" fill-rule="evenodd"></path><path id="path4" d="M8.666 5.417 C 8.451 5.646,8.352 5.833,8.445 5.833 C 8.658 5.833,9.249 5.194,9.139 5.083 C 9.094 5.038,8.881 5.189,8.666 5.417 M24.167 6.867 C 24.167 7.179,24.584 7.555,24.838 7.471 C 24.938 7.437,24.828 7.230,24.593 7.009 C 24.269 6.704,24.167 6.670,24.167 6.867 M2.009 21.260 C 2.230 21.495,2.437 21.605,2.471 21.504 C 2.555 21.251,2.179 20.833,1.867 20.833 C 1.670 20.833,1.704 20.935,2.009 21.260 M24.338 27.744 C 23.964 28.195,24.251 28.359,24.657 27.927 C 24.962 27.602,24.996 27.500,24.799 27.500 C 24.657 27.500,24.450 27.610,24.338 27.744 M8.000 29.482 C 8.000 29.640,8.814 30.416,8.880 30.320 C 8.906 30.282,8.718 30.049,8.464 29.802 C 8.209 29.556,8.000 29.412,8.000 29.482 M276.542 34.292 C 278.902 34.318,282.765 34.318,285.125 34.292 C 287.485 34.265,285.554 34.244,280.833 34.244 C 276.112 34.244,274.181 34.265,276.542 34.292 M61.416 39.834 C 60.990 40.305,61.171 40.349,61.619 39.883 C 61.822 39.673,61.927 39.500,61.853 39.500 C 61.779 39.500,61.582 39.650,61.416 39.834 M228.667 41.343 C 228.667 41.440,228.600 41.479,228.519 41.428 C 228.438 41.378,228.278 41.449,228.165 41.585 C 228.052 41.722,228.025 41.834,228.105 41.836 C 228.185 41.837,228.137 41.918,228.000 42.015 C 227.778 42.172,227.778 42.184,228.000 42.124 C 228.137 42.086,228.250 41.949,228.250 41.819 C 228.250 41.690,228.356 41.583,228.486 41.583 C 228.616 41.583,228.753 41.490,228.792 41.375 C 228.830 41.260,228.817 41.167,228.764 41.167 C 228.710 41.167,228.667 41.246,228.667 41.343 M50.833 42.135 C 50.833 42.391,51.811 43.005,51.925 42.821 C 51.985 42.724,51.881 42.604,51.695 42.556 C 51.509 42.507,51.316 42.362,51.267 42.234 C 51.171 41.985,50.833 41.908,50.833 42.135 M256.918 43.001 C 257.084 43.185,257.256 43.299,257.301 43.255 C 257.412 43.143,256.997 42.667,256.787 42.667 C 256.692 42.667,256.751 42.817,256.918 43.001 M228.000 42.985 C 228.137 43.082,228.185 43.163,228.105 43.164 C 228.025 43.166,228.052 43.278,228.165 43.415 C 228.278 43.551,228.431 43.626,228.505 43.580 C 228.578 43.535,228.676 43.575,228.723 43.670 C 228.770 43.764,228.789 43.746,228.765 43.629 C 228.742 43.512,228.616 43.417,228.486 43.417 C 228.356 43.417,228.250 43.310,228.250 43.181 C 228.250 43.051,228.137 42.914,228.000 42.876 C 227.778 42.816,227.778 42.828,228.000 42.985 M84.167 43.388 C 84.167 43.549,84.848 44.208,84.930 44.126 C 84.968 44.088,84.811 43.881,84.583 43.666 C 84.354 43.451,84.167 43.326,84.167 43.388 M178.676 43.740 L 178.275 44.167 178.643 44.167 C 179.010 44.167,179.252 43.839,179.137 43.496 C 179.104 43.395,178.896 43.505,178.676 43.740 M257.500 45.112 C 257.500 45.325,258.140 45.916,258.250 45.805 C 258.295 45.760,258.145 45.548,257.916 45.333 C 257.687 45.118,257.500 45.018,257.500 45.112 M229.667 46.148 C 229.667 46.306,230.481 47.083,230.546 46.987 C 230.572 46.948,230.385 46.715,230.130 46.469 C 229.875 46.223,229.667 46.078,229.667 46.148 M224.013 47.782 C 224.006 47.891,224.076 48.027,224.169 48.085 C 224.263 48.143,224.302 48.249,224.257 48.323 C 224.155 48.487,224.762 49.053,225.091 49.102 C 225.224 49.121,225.333 49.044,225.333 48.931 C 225.333 48.681,224.634 48.000,224.378 48.000 C 224.277 48.000,224.157 47.906,224.110 47.792 C 224.050 47.641,224.023 47.639,224.013 47.782 M226.000 49.571 C 226.000 49.740,227.051 50.672,227.140 50.582 C 227.195 50.527,227.130 50.412,226.995 50.327 C 226.860 50.242,226.815 50.171,226.895 50.169 C 226.975 50.168,226.948 50.055,226.835 49.919 C 226.722 49.782,226.562 49.711,226.481 49.762 C 226.400 49.812,226.333 49.774,226.333 49.677 C 226.333 49.579,226.258 49.500,226.167 49.500 C 226.075 49.500,226.000 49.532,226.000 49.571 M93.381 51.550 C 93.584 51.761,93.781 51.911,93.818 51.884 C 93.916 51.815,93.309 51.167,93.147 51.167 C 93.073 51.167,93.178 51.339,93.381 51.550 M227.565 51.575 C 227.616 51.925,228.126 52.444,228.417 52.444 C 228.783 52.444,228.722 52.110,228.281 51.696 C 227.837 51.279,227.513 51.224,227.565 51.575 M260.679 57.994 C 260.365 58.072,259.854 58.406,259.544 58.735 C 259.233 59.064,258.815 59.335,258.615 59.337 C 257.923 59.344,256.841 59.969,256.490 60.563 C 256.303 60.880,255.882 61.344,255.556 61.593 C 254.951 62.054,254.344 63.138,254.337 63.767 C 254.335 63.960,254.111 64.350,253.838 64.635 C 253.234 65.267,253.046 65.904,253.354 66.275 C 253.697 66.688,254.699 67.277,255.273 67.403 C 255.593 67.474,255.859 67.674,255.977 67.934 C 256.333 68.714,257.816 69.045,259.217 68.656 C 259.949 68.452,260.381 67.857,260.670 66.654 C 260.951 65.482,263.766 64.695,264.444 65.600 C 265.211 66.622,264.685 69.686,263.551 70.806 C 263.145 71.208,262.775 71.752,262.719 72.029 C 262.649 72.380,262.455 72.606,262.067 72.791 C 261.695 72.969,261.429 73.267,261.255 73.704 C 261.068 74.170,260.832 74.420,260.416 74.594 C 260.022 74.759,259.758 75.025,259.591 75.424 C 259.423 75.826,259.160 76.090,258.758 76.258 C 258.360 76.424,258.092 76.689,257.930 77.078 C 257.766 77.471,257.499 77.732,257.089 77.904 C 256.672 78.078,256.412 78.336,256.240 78.749 C 256.055 79.192,255.864 79.369,255.491 79.444 C 254.989 79.544,254.333 80.193,254.333 80.589 C 254.333 80.705,254.070 80.956,253.747 81.146 C 252.687 81.772,252.600 82.856,253.554 83.566 C 254.014 83.909,254.193 83.918,262.304 83.971 C 274.547 84.052,273.833 84.235,273.833 81.015 C 273.833 77.870,273.797 77.840,269.869 77.708 C 266.930 77.609,266.646 77.521,267.640 77.014 C 267.999 76.831,268.444 76.424,268.629 76.110 C 268.814 75.796,269.193 75.405,269.472 75.240 C 269.750 75.076,270.147 74.598,270.354 74.179 C 270.560 73.760,271.008 73.117,271.349 72.750 C 271.804 72.261,272.042 71.795,272.241 71.003 C 272.391 70.409,272.623 69.861,272.756 69.786 C 273.845 69.177,273.958 65.349,272.912 64.526 C 272.663 64.330,272.468 63.901,272.333 63.249 C 272.050 61.884,271.869 61.555,271.240 61.256 C 270.913 61.101,270.570 60.746,270.388 60.373 C 270.125 59.836,269.942 59.704,269.052 59.417 C 268.484 59.233,267.847 58.924,267.635 58.729 C 266.844 58.001,266.510 57.928,263.833 57.888 C 262.412 57.868,260.993 57.915,260.679 57.994 M266.367 58.873 C 266.761 59.100,267.621 59.447,268.278 59.644 C 269.294 59.948,269.556 60.107,270.027 60.709 C 270.332 61.098,270.819 61.644,271.109 61.922 C 271.462 62.260,271.728 62.757,271.912 63.422 C 272.064 63.969,272.333 64.898,272.511 65.486 C 272.899 66.775,272.912 67.297,272.581 68.311 C 272.443 68.736,272.178 69.622,271.994 70.281 C 271.756 71.130,271.512 71.616,271.156 71.948 C 270.879 72.206,270.515 72.717,270.347 73.083 C 270.070 73.688,267.067 76.846,266.431 77.202 C 265.639 77.645,266.730 78.000,268.886 78.000 C 272.933 78.000,273.365 78.294,273.297 80.999 C 273.226 83.842,274.204 83.583,263.529 83.583 C 254.081 83.583,254.006 83.577,253.522 82.711 C 253.310 82.333,254.280 81.187,256.667 78.997 C 259.619 76.287,262.735 72.994,263.208 72.083 C 263.351 71.808,263.691 71.419,263.963 71.219 C 264.236 71.018,264.510 70.651,264.572 70.403 C 264.634 70.155,264.944 69.407,265.259 68.742 C 266.057 67.061,265.961 66.439,264.699 65.097 C 263.847 64.190,262.681 64.006,262.071 64.680 C 261.898 64.871,261.519 65.127,261.228 65.248 C 260.823 65.418,260.569 65.736,260.141 66.610 C 259.545 67.828,259.257 68.051,258.048 68.231 C 257.431 68.323,257.280 68.276,256.782 67.839 C 256.471 67.566,255.873 67.196,255.453 67.015 C 254.123 66.446,253.930 64.703,255.030 63.207 C 256.214 61.596,258.062 59.905,258.890 59.674 C 259.333 59.550,259.959 59.270,260.281 59.052 C 261.543 58.195,265.016 58.093,266.367 58.873 M130.542 60.782 C 130.702 60.823,130.965 60.823,131.125 60.782 C 131.285 60.740,131.154 60.705,130.833 60.705 C 130.512 60.705,130.381 60.740,130.542 60.782 M241.167 61.480 C 241.167 61.643,241.815 62.249,241.884 62.152 C 241.911 62.114,241.761 61.917,241.550 61.714 C 241.339 61.511,241.167 61.406,241.167 61.480 M332.833 61.480 C 332.833 61.643,333.481 62.249,333.551 62.152 C 333.578 62.114,333.428 61.917,333.217 61.714 C 333.006 61.511,332.833 61.406,332.833 61.480 M123.056 63.125 C 122.766 63.423,122.622 63.667,122.735 63.667 C 122.994 63.667,123.723 62.906,123.643 62.720 C 123.610 62.645,123.346 62.827,123.056 63.125 M138.676 62.927 C 138.896 63.161,139.104 63.271,139.137 63.171 C 139.252 62.828,139.010 62.500,138.643 62.500 L 138.275 62.500 138.676 62.927 M52.562 64.411 C 52.371 64.909,52.602 65.007,52.991 64.593 L 53.391 64.167 53.024 64.167 C 52.822 64.167,52.614 64.277,52.562 64.411 M121.082 64.501 C 120.637 64.993,120.875 65.071,121.334 64.583 C 121.549 64.354,121.648 64.167,121.555 64.167 C 121.461 64.167,121.249 64.317,121.082 64.501 M284.243 64.344 C 284.183 64.442,284.173 64.562,284.222 64.611 C 284.342 64.730,284.667 64.520,284.667 64.323 C 284.667 64.111,284.379 64.125,284.243 64.344 M329.802 66.797 C 330.049 67.052,330.282 67.239,330.320 67.213 C 330.416 67.148,329.640 66.333,329.482 66.333 C 329.412 66.333,329.556 66.542,329.802 66.797 M246.333 67.749 C 246.333 67.988,247.039 68.667,247.288 68.667 C 247.544 68.667,247.453 68.242,247.116 67.869 C 246.801 67.521,246.333 67.449,246.333 67.749 M279.167 71.778 C 279.167 71.991,279.806 72.583,279.917 72.472 C 279.962 72.427,279.811 72.214,279.583 71.999 C 279.354 71.784,279.167 71.685,279.167 71.778 M245.029 76.719 C 244.612 77.163,244.558 77.487,244.909 77.435 C 245.258 77.384,245.778 76.874,245.778 76.583 C 245.778 76.217,245.443 76.278,245.029 76.719 M286.714 79.883 C 286.917 80.094,287.114 80.245,287.152 80.218 C 287.249 80.148,286.643 79.500,286.480 79.500 C 286.406 79.500,286.511 79.673,286.714 79.883 M234.551 81.069 C 234.294 81.291,234.126 81.515,234.179 81.567 C 234.231 81.620,234.489 81.439,234.752 81.165 C 235.325 80.566,235.203 80.508,234.551 81.069 M206.999 82.084 C 206.784 82.313,206.685 82.500,206.778 82.500 C 206.991 82.500,207.583 81.860,207.472 81.750 C 207.427 81.705,207.214 81.855,206.999 82.084 M333.334 86.749 C 333.119 86.978,332.975 87.187,333.013 87.213 C 333.052 87.239,333.285 87.052,333.531 86.797 C 333.777 86.542,333.922 86.333,333.852 86.333 C 333.782 86.333,333.549 86.521,333.334 86.749 M294.723 90.208 C 295.013 90.506,295.277 90.688,295.310 90.613 C 295.390 90.428,294.660 89.667,294.402 89.667 C 294.288 89.667,294.433 89.910,294.723 90.208 M260.896 92.745 C 260.705 93.242,260.935 93.340,261.324 92.927 L 261.725 92.500 261.357 92.500 C 261.155 92.500,260.947 92.610,260.896 92.745 M230.333 95.417 C 230.118 95.646,229.992 95.833,230.054 95.833 C 230.216 95.833,230.874 95.152,230.792 95.070 C 230.754 95.032,230.548 95.189,230.333 95.417 M302.500 100.112 C 302.500 100.325,303.140 100.916,303.250 100.805 C 303.295 100.760,303.145 100.548,302.916 100.333 C 302.687 100.118,302.500 100.018,302.500 100.112 M254.802 101.536 C 254.556 101.791,254.412 102.000,254.482 102.000 C 254.640 102.000,255.416 101.186,255.320 101.120 C 255.282 101.094,255.049 101.282,254.802 101.536 M155.146 101.250 C 155.134 101.296,155.116 101.427,155.104 101.542 C 155.093 101.656,154.977 101.750,154.847 101.750 C 154.717 101.750,154.580 101.862,154.543 102.000 C 154.482 102.222,154.494 102.222,154.651 102.000 C 154.749 101.862,154.829 101.815,154.831 101.895 C 154.832 101.975,154.945 101.948,155.081 101.835 C 155.218 101.722,155.293 101.569,155.247 101.495 C 155.202 101.422,155.259 101.324,155.374 101.277 C 155.540 101.210,155.541 101.190,155.375 101.180 C 155.260 101.173,155.157 101.204,155.146 101.250 M211.082 104.501 C 210.637 104.993,210.875 105.071,211.334 104.583 C 211.549 104.354,211.648 104.167,211.555 104.167 C 211.461 104.167,211.249 104.317,211.082 104.501 M148.479 104.583 C 148.468 104.629,148.449 104.760,148.438 104.875 C 148.426 104.990,148.310 105.083,148.181 105.083 C 148.051 105.083,147.914 105.196,147.876 105.333 C 147.816 105.556,147.828 105.556,147.985 105.333 C 148.082 105.196,148.163 105.149,148.164 105.229 C 148.166 105.309,148.278 105.281,148.415 105.168 C 148.551 105.055,148.626 104.902,148.580 104.829 C 148.535 104.755,148.592 104.657,148.707 104.611 C 148.874 104.544,148.874 104.524,148.708 104.513 C 148.594 104.506,148.491 104.537,148.479 104.583 M135.333 106.250 C 135.549 106.479,135.872 106.667,136.052 106.667 C 136.302 106.667,136.233 106.567,135.766 106.250 C 135.428 106.021,135.105 105.833,135.047 105.833 C 134.989 105.833,135.118 106.021,135.333 106.250 " stroke="none" fill="#4c6c64" fill-rule="evenodd"></path></g></svg>